<?xml version="1.0" encoding="UTF-8"?>
<svg id="Layer_2" data-name="Layer 2" xmlns="http://www.w3.org/2000/svg" xmlns:xlink="http://www.w3.org/1999/xlink" viewBox="0 0 88.45 156.01">
  <defs>
    <style>
      .cls-1 {
        fill: url(#linear-gradient-2);
      }

      .cls-2 {
        fill: url(#linear-gradient-4);
      }

      .cls-3 {
        fill: url(#linear-gradient-3);
      }

      .cls-4 {
        fill: url(#linear-gradient);
      }
    </style>
    <linearGradient id="linear-gradient" x1="0" y1="30.03" x2="88.45" y2="30.03" gradientUnits="userSpaceOnUse">
      <stop offset="0" stop-color="#00bedd"/>
      <stop offset="1" stop-color="#2ba9d0"/>
    </linearGradient>
    <linearGradient id="linear-gradient-2" x1="0" y1="79.86" x2="88.45" y2="79.86" gradientUnits="userSpaceOnUse">
      <stop offset="0" stop-color="#0082bb"/>
      <stop offset="1" stop-color="#1c97c7"/>
    </linearGradient>
    <linearGradient id="linear-gradient-3" x1="0" y1="86.74" x2="88.45" y2="86.74" gradientUnits="userSpaceOnUse">
      <stop offset="0" stop-color="#516cb3"/>
      <stop offset="1" stop-color="#694a9e"/>
    </linearGradient>
    <linearGradient id="linear-gradient-4" x1="0" y1="131.57" x2="88.45" y2="131.57" gradientUnits="userSpaceOnUse">
      <stop offset="0" stop-color="#007d8c"/>
      <stop offset=".24" stop-color="#16978d"/>
      <stop offset=".48" stop-color="#26a98e"/>
      <stop offset=".73" stop-color="#30b58f"/>
      <stop offset="1" stop-color="#34b990"/>
    </linearGradient>
  </defs>
  <g id="Layer_2-2" data-name="Layer 2">
    <g>
      <path class="cls-4" d="M88.45,41.78v13.27L1.94,59.49c-.77.04-1.43.25-1.94.58V0l80.19,29.88c4.97,1.85,8.26,6.6,8.26,11.9Z"/>
      <path class="cls-1" d="M88.45,55.05v49.61c-.29-.51-.79-.96-1.52-1.28L.44,64.91c-.16-.07-.31-.14-.44-.23v-4.62c.52-.32,1.17-.53,1.94-.58l86.51-4.44Z"/>
      <path class="cls-3" d="M88.45,104.66v2.47c-.53.94-1.67,1.67-3.25,1.67H0v-44.12c.14.08.28.16.44.23l86.49,38.47c.73.32,1.23.77,1.52,1.28Z"/>
      <path class="cls-2" d="M88.45,107.13v35.69c0,9.19-9.16,15.56-17.78,12.35L0,128.84v-20.04h85.21c1.58,0,2.72-.73,3.25-1.67Z"/>
    </g>
  </g>
</svg>